<?xml version="1.0" encoding="iso-8859-1"?>
<!-- Generator: Adobe Illustrator 19.0.0, SVG Export Plug-In . SVG Version: 6.00 Build 0)  -->
<svg version="1.1" id="Capa_1" xmlns="http://www.w3.org/2000/svg" xmlns:xlink="http://www.w3.org/1999/xlink" x="0px" y="0px"
	 viewBox="0 0 512.004 512.004" style="enable-background:new 0 0 512.004 512.004;" xml:space="preserve">
<g>
	<path style="fill:#444B66;" d="M128.571,310.938c-4.143,0-7.5,3.357-7.5,7.5v84.835H20.604c-4.143,0-7.5,3.357-7.5,7.5
		s3.357,7.5,7.5,7.5h107.968c4.143,0,7.5-3.357,7.5-7.5v-92.335C136.071,314.296,132.714,310.938,128.571,310.938z"/>
	<path style="fill:#444B66;" d="M491.396,403.273H390.929v-84.835c0-4.143-3.357-7.5-7.5-7.5s-7.5,3.357-7.5,7.5v92.335
		c0,4.143,3.357,7.5,7.5,7.5h107.968c4.143,0,7.5-3.357,7.5-7.5S495.539,403.273,491.396,403.273z"/>
	<path style="fill:#444B66;" d="M177.191,310.938c-4.143,0-7.5,3.357-7.5,7.5v172.958c0,4.143,3.357,7.5,7.5,7.5s7.5-3.357,7.5-7.5
		V318.438C184.691,314.296,181.334,310.938,177.191,310.938z"/>
	<path style="fill:#444B66;" d="M334.809,310.938c-4.143,0-7.5,3.357-7.5,7.5v172.958c0,4.143,3.357,7.5,7.5,7.5s7.5-3.357,7.5-7.5
		V318.438C342.309,314.296,338.951,310.938,334.809,310.938z"/>
	<path style="fill:#444B66;" d="M256,310.938c-4.143,0-7.5,3.357-7.5,7.5v132.266c0,4.143,3.357,7.5,7.5,7.5s7.5-3.357,7.5-7.5
		V318.438C263.5,314.296,260.143,310.938,256,310.938z"/>
</g>
<g>
	<circle style="fill:#EC5569;" cx="177.19" cy="491.4" r="20.604"/>
	<circle style="fill:#EC5569;" cx="334.81" cy="491.4" r="20.604"/>
</g>
<path style="fill:#6E6B87;" d="M242.093,318.439H108.169V4c0-2.209,1.791-4,4-4h125.924c2.209,0,4,1.791,4,4V318.439z"/>
<path style="fill:#625F78;" d="M242.093,318.439h-30.905V0h26.905c2.209,0,4,1.791,4,4V318.439z"/>
<path style="fill:#6E6B87;" d="M405.891,318.439H271.968V4c0-2.209,1.791-4,4-4h125.924c2.209,0,4,1.791,4,4v314.439H405.891z"/>
<path style="fill:#625F78;" d="M405.891,318.439h-30.905V0h26.905c2.209,0,4,1.791,4,4V318.439z"/>
<rect x="108.17" y="43.849" style="fill:#FAD87C;" width="133.92" height="100.96"/>
<rect x="211.19" y="43.849" style="fill:#FEBE40;" width="30.905" height="100.96"/>
<rect x="271.97" y="43.849" style="fill:#FAD87C;" width="133.92" height="100.96"/>
<rect x="374.99" y="43.849" style="fill:#FEBE40;" width="30.905" height="100.96"/>
<g>
	<circle style="fill:#444B66;" cx="303.06" cy="73.34" r="8.403"/>
	<circle style="fill:#444B66;" cx="303.06" cy="94.33" r="8.403"/>
	<circle style="fill:#444B66;" cx="303.06" cy="115.31" r="8.403"/>
	<circle style="fill:#444B66;" cx="139.25" cy="73.34" r="8.403"/>
	<circle style="fill:#444B66;" cx="139.25" cy="94.33" r="8.403"/>
	<circle style="fill:#444B66;" cx="139.25" cy="115.31" r="8.403"/>
</g>
<path style="fill:#CAEEFC;" d="M446.583,309.632c0,18.171-14.77,32.903-32.997,32.903c-18.217,0-296.965,0-315.183,0
	s-32.987-14.732-32.987-32.903s14.77-32.903,32.987-32.903c5.62,0,10.91,1.407,15.531,3.881c-0.268-1.827-0.402-3.685-0.402-5.585
	c0-21.436,17.425-38.817,38.915-38.817c9.85,0,18.835,3.645,25.69,9.671c-0.041-0.749-0.051-1.499-0.051-2.259
	c0-30.716,24.969-55.612,55.764-55.612c23.785,0,44.103,14.865,52.11,35.798c6.587-10.389,18.218-17.288,31.453-17.288
	c20.544,0,37.197,16.611,37.197,37.102c0,4.363-0.752,8.552-2.141,12.443c3.644-1.725,7.73-2.69,12.032-2.69
	c15.572,0,28.201,12.597,28.201,28.13c0,0.934-0.041,1.868-0.134,2.782c5.702-4.723,13.03-7.556,21.017-7.556
	C431.814,276.729,446.583,291.461,446.583,309.632z"/>
<path style="fill:#89CEEA;" d="M413.586,276.889c-7.987,0-15.315,2.833-21.017,7.556c0.092-0.914,0.134-1.848,0.134-2.782
	c0-15.533-12.629-28.13-28.201-28.13c-4.302,0-8.388,0.965-12.032,2.69c1.389-3.891,2.141-8.08,2.141-12.443
	c0-20.491-16.653-37.102-37.197-37.102c-13.236,0-24.866,6.899-31.453,17.288c-8.008-20.933-28.325-35.798-52.11-35.798
	c-19.471,0-36.604,9.96-46.578,25.044c6.248-2.415,13.034-3.754,20.137-3.754c19.3,0,36.316,9.788,46.326,24.662
	c3.144,4.673,9.528,5.57,13.918,2.042c6.379-5.126,14.492-8.194,23.32-8.194c20.543,0,37.197,16.611,37.197,37.102
	c0,0.044,0,0.087,0,0.131c-0.018,5.345,4.227,9.643,9.571,9.622c0.106,0,0.213,0,0.319,0.001
	c15.258,0.119,22.352,10.975,25.56,19.792c1.799,4.944,7.219,7.382,12.159,5.571c3.543-1.299,7.372-2.007,11.365-2.007
	c18.228,0,32.997,14.732,32.997,32.903c0,3.968-0.704,7.771-1.995,11.293c16.067-2.216,28.436-15.956,28.436-32.583
	C446.583,291.621,431.814,276.889,413.586,276.889z"/>
<g>
	<circle style="fill:#EC5569;" cx="20.604" cy="410.77" r="20.604"/>
	<circle style="fill:#EC5569;" cx="491.4" cy="410.77" r="20.604"/>
	<circle style="fill:#EC5569;" cx="256" cy="450.7" r="20.604"/>
</g>
<g>
</g>
<g>
</g>
<g>
</g>
<g>
</g>
<g>
</g>
<g>
</g>
<g>
</g>
<g>
</g>
<g>
</g>
<g>
</g>
<g>
</g>
<g>
</g>
<g>
</g>
<g>
</g>
<g>
</g>
</svg>
